<svg xmlns="http://www.w3.org/2000/svg" viewBox="0 12.800000190734863 313.20001220703125 46.70000076293945" data-asc="0.974" width="313.20001220703125" height="46.70000076293945"><defs/><g><g fill="#dc2626"><g transform="translate(0, 0)"><path d="M3.75 49.15Q1.95 49.15 1.18 48.60Q0.40 48.05 0.20 47.17Q0 46.30 0 45.30L0 17.95Q0 17.00 0.20 16.17Q0.40 15.35 1.20 14.80Q2.00 14.25 3.85 14.25Q5.10 14.25 5.75 14.40Q6.40 14.55 6.70 14.82Q7 15.10 7.35 15.45L18.60 30.65L17.85 30.65L29.15 15.45Q29.55 14.95 29.95 14.70Q30.35 14.45 30.98 14.35Q31.60 14.25 32.75 14.25Q34.55 14.25 35.35 14.80Q36.15 15.35 36.35 16.22Q36.55 17.10 36.55 18.05L36.55 45.40Q36.55 46.35 36.35 47.20Q36.15 48.05 35.35 48.60Q34.55 49.15 32.70 49.15Q30.90 49.15 30.10 48.60Q29.30 48.05 29.10 47.15Q28.90 46.25 28.90 45.30L28.90 27.45L21.45 38.00Q21.25 38.25 20.90 38.67Q20.55 39.10 19.93 39.40Q19.30 39.70 18.25 39.70Q17.15 39.70 16.52 39.40Q15.90 39.10 15.55 38.70Q15.20 38.30 14.95 38.00L7.55 27.50L7.55 45.40Q7.55 46.35 7.35 47.20Q7.15 48.05 6.38 48.60Q5.60 49.15 3.75 49.15ZM61.05 49.10Q59.20 49.10 58.33 48.45Q57.45 47.80 57.45 46.85L57.95 46.00Q57.65 46.50 56.80 47.22Q55.95 47.95 54.60 48.52Q53.25 49.10 51.25 49.10Q48.95 49.10 46.88 48.10Q44.80 47.10 43.20 45.32Q41.60 43.55 40.68 41.30Q39.75 39.05 39.75 36.55Q39.75 34.10 40.68 31.87Q41.60 29.65 43.23 27.92Q44.85 26.20 46.90 25.20Q48.95 24.20 51.25 24.20Q53.10 24.20 54.40 24.72Q55.70 25.25 56.58 25.95Q57.45 26.65 57.90 27.30L57.50 26.60Q57.45 25.40 58.33 24.77Q59.20 24.15 61.10 24.15Q62.90 24.15 63.68 24.70Q64.45 25.25 64.63 26.15Q64.80 27.05 64.80 28.05L64.80 45.30Q64.80 46.25 64.63 47.15Q64.45 48.05 63.68 48.57Q62.90 49.10 61.05 49.10M52.35 41.65Q53.65 41.65 54.73 40.97Q55.80 40.30 56.42 39.15Q57.05 38.00 57.05 36.60Q57.05 35.15 56.40 34.02Q55.75 32.90 54.65 32.22Q53.55 31.55 52.25 31.55Q50.80 31.55 49.68 32.25Q48.55 32.95 47.88 34.10Q47.20 35.25 47.20 36.70Q47.20 38.05 47.88 39.17Q48.55 40.30 49.73 40.97Q50.90 41.65 52.35 41.65ZM81.65 49.15Q79.10 49.15 77.28 48.60Q75.45 48.05 74.25 46.90Q73.05 45.75 72.47 43.97Q71.90 42.20 71.90 39.75L71.90 19.45Q71.90 18.45 72.08 17.65Q72.25 16.85 73.05 16.32Q73.85 15.80 75.65 15.80Q77.45 15.80 78.25 16.35Q79.05 16.90 79.22 17.75Q79.40 18.60 79.40 19.60L79.40 39.45Q79.40 40.25 79.53 40.77Q79.65 41.30 79.90 41.55Q80.15 41.80 80.60 41.90Q81.05 42.00 81.70 42.00Q82.80 42.00 83.65 42.20Q84.50 42.40 84.97 43.10Q85.45 43.80 85.45 45.45Q85.45 47.25 84.90 48.05Q84.35 48.85 83.47 49.00Q82.60 49.15 81.65 49.15M70.35 24.55L75.85 24.55L82.75 24.35Q83.70 24.35 84.55 24.52Q85.40 24.70 85.95 25.50Q86.50 26.30 86.50 28.15Q86.50 29.85 85.97 30.65Q85.45 31.45 84.60 31.67Q83.75 31.90 82.75 31.90L76.20 31.75L70.15 31.75Q68.70 31.70 68.13 30.87Q67.55 30.05 67.55 28.10Q67.55 26.30 68.25 25.42Q68.95 24.55 70.35 24.55ZM92.90 49.15Q91.10 49.15 90.30 48.62Q89.50 48.10 89.33 47.22Q89.15 46.35 89.15 45.35L89.15 16.55Q89.15 15.55 89.35 14.70Q89.55 13.85 90.35 13.32Q91.15 12.80 92.95 12.80Q94.80 12.80 95.58 13.35Q96.35 13.90 96.52 14.75Q96.70 15.60 96.70 16.60L96.70 26.80Q97.60 25.85 99.03 25.00Q100.45 24.15 102.40 24.15Q105.50 24.15 107.97 25.72Q110.45 27.30 111.92 30.05Q113.40 32.80 113.40 36.35L113.40 45.40Q113.40 46.40 113.20 47.25Q113 48.10 112.25 48.62Q111.50 49.15 109.60 49.15Q107.85 49.15 107.03 48.62Q106.20 48.10 106.03 47.22Q105.85 46.35 105.85 45.35L105.85 36.30Q105.85 34.85 105.35 33.82Q104.85 32.80 103.88 32.20Q102.90 31.60 101.50 31.60Q99.65 31.60 98.28 32.72Q96.90 33.85 96.70 35.45L96.70 45.40Q96.70 46.40 96.50 47.25Q96.30 48.10 95.52 48.62Q94.75 49.15 92.90 49.15ZM118.80 39.35Q118.10 39.35 117.35 39.17Q116.60 39.00 116.10 38.27Q115.60 37.55 115.60 35.85Q115.60 34.15 116.13 33.45Q116.65 32.75 117.40 32.57Q118.15 32.40 118.85 32.40L130.55 32.40Q131.30 32.40 132.05 32.57Q132.80 32.75 133.30 33.47Q133.80 34.20 133.80 35.85Q133.80 37.55 133.32 38.27Q132.85 39.00 132.10 39.17Q131.35 39.35 130.55 39.35L118.80 39.35ZM141.40 49.15Q139.60 49.15 138.83 48.60Q138.05 48.05 137.85 47.17Q137.65 46.30 137.65 45.30L137.65 17.95Q137.65 17.00 137.85 16.17Q138.05 15.35 138.85 14.80Q139.65 14.25 141.50 14.25Q142.75 14.25 143.40 14.40Q144.05 14.55 144.35 14.82Q144.65 15.10 145 15.45L156.25 30.65L155.50 30.65L166.80 15.45Q167.20 14.95 167.60 14.70Q168 14.45 168.63 14.35Q169.25 14.25 170.40 14.25Q172.20 14.25 173 14.80Q173.80 15.35 174 16.22Q174.20 17.10 174.20 18.05L174.20 45.40Q174.20 46.35 174 47.20Q173.80 48.05 173 48.60Q172.20 49.15 170.35 49.15Q168.55 49.15 167.75 48.60Q166.95 48.05 166.75 47.15Q166.55 46.25 166.55 45.30L166.55 27.45L159.10 38.00Q158.90 38.25 158.55 38.67Q158.20 39.10 157.58 39.40Q156.95 39.70 155.90 39.70Q154.80 39.70 154.18 39.40Q153.55 39.10 153.20 38.70Q152.85 38.30 152.60 38.00L145.20 27.50L145.20 45.40Q145.20 46.35 145 47.20Q144.80 48.05 144.03 48.60Q143.25 49.15 141.40 49.15ZM198.70 49.10Q196.85 49.10 195.97 48.45Q195.10 47.80 195.10 46.85L195.60 46.00Q195.30 46.50 194.45 47.22Q193.60 47.95 192.25 48.52Q190.90 49.10 188.90 49.10Q186.60 49.10 184.53 48.10Q182.45 47.10 180.85 45.32Q179.25 43.55 178.32 41.30Q177.40 39.05 177.40 36.55Q177.40 34.10 178.32 31.87Q179.25 29.65 180.88 27.92Q182.50 26.20 184.55 25.20Q186.60 24.20 188.90 24.20Q190.75 24.20 192.05 24.72Q193.35 25.25 194.22 25.95Q195.10 26.65 195.55 27.30L195.15 26.60Q195.10 25.40 195.97 24.77Q196.85 24.15 198.75 24.15Q200.55 24.15 201.32 24.70Q202.10 25.25 202.28 26.15Q202.45 27.05 202.45 28.05L202.45 45.30Q202.45 46.25 202.28 47.15Q202.10 48.05 201.32 48.57Q200.55 49.10 198.70 49.10M190 41.65Q191.30 41.65 192.38 40.97Q193.45 40.30 194.07 39.15Q194.70 38.00 194.70 36.60Q194.70 35.15 194.05 34.02Q193.40 32.90 192.30 32.22Q191.20 31.55 189.90 31.55Q188.45 31.55 187.32 32.25Q186.20 32.95 185.53 34.10Q184.85 35.25 184.85 36.70Q184.85 38.05 185.53 39.17Q186.20 40.30 187.38 40.97Q188.55 41.65 190 41.65ZM210.20 49.10Q208.35 49.10 207.58 48.57Q206.80 48.05 206.63 47.17Q206.45 46.30 206.45 45.35L206.45 27.75Q206.45 26.80 206.65 25.97Q206.85 25.15 207.63 24.65Q208.40 24.15 210.25 24.15Q211.85 24.15 212.60 24.57Q213.35 25.00 213.58 25.60Q213.80 26.20 213.80 26.72Q213.80 27.25 213.90 27.45L213.60 28.40Q213.70 27.65 214.38 26.87Q215.05 26.10 216.08 25.47Q217.10 24.85 218.28 24.50Q219.45 24.15 220.60 24.15Q223 24.15 224.88 25.02Q226.75 25.90 228.05 27.55Q229.35 29.20 230.03 31.42Q230.70 33.65 230.70 36.30L230.70 45.40Q230.70 46.35 230.53 47.22Q230.35 48.10 229.58 48.60Q228.80 49.10 226.95 49.10Q225.05 49.10 224.28 48.57Q223.50 48.05 223.30 47.17Q223.10 46.30 223.10 45.35L223.10 36.30Q223.10 34.80 222.60 33.75Q222.10 32.70 221.10 32.13Q220.10 31.55 218.65 31.55Q217.20 31.55 216.15 32.15Q215.10 32.75 214.53 33.80Q213.95 34.85 213.95 36.30L213.95 45.40Q213.95 46.35 213.78 47.22Q213.60 48.10 212.83 48.60Q212.05 49.10 210.20 49.10ZM247 49.60Q243.50 49.60 240.98 48.45Q238.45 47.30 236.85 45.42Q235.25 43.55 234.48 41.25Q233.70 38.95 233.70 36.65Q233.70 32.90 235.40 30.00Q237.10 27.10 240.10 25.42Q243.10 23.75 247 23.75Q249.90 23.75 252.03 24.67Q254.15 25.60 255.53 27.07Q256.90 28.55 257.57 30.25Q258.25 31.95 258.25 33.50Q258.25 36.25 256.93 37.57Q255.60 38.90 253.55 38.90L241.65 38.90Q241.75 40.20 242.58 41.10Q243.40 42.00 244.65 42.50Q245.90 43.00 247.30 43.00Q248.50 43.00 249.40 42.87Q250.30 42.75 250.95 42.52Q251.60 42.30 252.15 42.07Q252.70 41.85 253.13 41.70Q253.55 41.55 253.95 41.50Q254.70 41.45 255.33 41.92Q255.95 42.40 256.45 43.35Q256.80 43.90 256.93 44.40Q257.05 44.90 257.05 45.40Q257.05 46.60 255.83 47.55Q254.60 48.50 252.38 49.05Q250.15 49.60 247 49.60M241.65 34.80L249.55 34.80Q250.35 34.80 250.73 34.52Q251.10 34.25 251.10 33.45Q251.10 32.55 250.55 31.87Q250 31.20 249.08 30.82Q248.15 30.45 246.95 30.45Q245.40 30.45 244.20 31.05Q243 31.65 242.33 32.65Q241.65 33.65 241.65 34.80ZM274.55 48.70Q272.10 48.70 270.23 47.72Q268.35 46.75 267.13 45.07Q265.90 43.40 265.28 41.20Q264.65 39.00 264.70 36.45Q264.70 34.00 265.35 31.77Q266.00 29.55 267.23 27.82Q268.45 26.10 270.28 25.12Q272.10 24.15 274.55 24.15Q276.75 24.15 278.83 25.15Q280.90 26.15 282.50 27.87Q284.10 29.60 285.03 31.85Q285.95 34.10 285.95 36.60Q285.95 39.10 285.03 41.32Q284.10 43.55 282.50 45.20Q280.90 46.85 278.85 47.77Q276.80 48.70 274.55 48.70M264.90 59.50Q263.10 59.50 262.33 58.97Q261.55 58.45 261.38 57.63Q261.20 56.80 261.20 55.85L261.20 27.90Q261.20 26.90 261.35 26.07Q261.50 25.25 262.28 24.70Q263.05 24.15 264.85 24.15Q266.40 24.15 267.33 24.60Q268.25 25.05 268.65 26.00L268.65 55.80Q268.70 56.75 268.50 57.60Q268.30 58.45 267.53 58.97Q266.75 59.50 264.90 59.50M273.50 41.65Q274.90 41.65 276.00 40.97Q277.10 40.30 277.78 39.15Q278.45 38.00 278.45 36.60Q278.45 35.15 277.80 34.02Q277.15 32.90 276.05 32.25Q274.95 31.60 273.55 31.60Q272.20 31.60 271.08 32.27Q269.95 32.95 269.33 34.07Q268.70 35.20 268.70 36.60Q268.70 38.00 269.35 39.15Q270.00 40.30 271.10 40.97Q272.20 41.65 273.50 41.65ZM309.45 49.10Q307.60 49.10 306.73 48.45Q305.85 47.80 305.85 46.85L306.35 46.00Q306.05 46.50 305.20 47.22Q304.35 47.95 303.00 48.52Q301.65 49.10 299.65 49.10Q297.35 49.10 295.28 48.10Q293.20 47.10 291.60 45.32Q290.00 43.55 289.08 41.30Q288.15 39.05 288.15 36.55Q288.15 34.10 289.08 31.87Q290.00 29.65 291.63 27.92Q293.25 26.20 295.30 25.20Q297.35 24.20 299.65 24.20Q301.50 24.20 302.80 24.72Q304.10 25.25 304.98 25.95Q305.85 26.65 306.30 27.30L305.90 26.60Q305.85 25.40 306.73 24.77Q307.60 24.15 309.50 24.15Q311.30 24.15 312.08 24.70Q312.85 25.25 313.03 26.15Q313.20 27.05 313.20 28.05L313.20 45.30Q313.20 46.25 313.03 47.15Q312.85 48.05 312.08 48.57Q311.30 49.10 309.45 49.10M300.75 41.65Q302.05 41.65 303.13 40.97Q304.20 40.30 304.83 39.15Q305.45 38.00 305.45 36.60Q305.45 35.15 304.80 34.02Q304.15 32.90 303.05 32.22Q301.95 31.55 300.65 31.55Q299.20 31.55 298.08 32.25Q296.95 32.95 296.28 34.10Q295.60 35.25 295.60 36.70Q295.60 38.05 296.28 39.17Q296.95 40.30 298.13 40.97Q299.30 41.65 300.75 41.65Z"/></g></g></g></svg>